<?xml version="1.0" standalone="no"?>
<!DOCTYPE svg PUBLIC "-//W3C//DTD SVG 20010904//EN"
 "http://www.w3.org/TR/2001/REC-SVG-20010904/DTD/svg10.dtd">
<svg version="1.0" xmlns="http://www.w3.org/2000/svg"
 width="700.000000pt" height="700.000000pt" viewBox="0 0 700.000000 700.000000"
 preserveAspectRatio="xMidYMid meet">
<metadata>
Created by potrace 1.14, written by Peter Selinger 2001-2017
</metadata>
<g transform="translate(0.000000,700.000000) scale(0.100000,-0.100000)"
fill="#000000" stroke="none">
<path d="M3165 6989 c-49 -5 -158 -20 -241 -34 -1058 -177 -1967 -822 -2497
-1771 -159 -285 -288 -637 -356 -972 -58 -282 -66 -368 -66 -717 0 -335 7
-414 56 -665 183 -937 733 -1749 1541 -2274 429 -278 873 -443 1423 -529 122
-19 182 -22 460 -22 346 0 424 6 684 57 315 60 571 148 876 298 230 114 362
194 550 335 273 204 506 437 710 710 141 188 221 320 335 550 179 363 272 667
337 1100 15 97 18 183 18 450 -1 292 -3 347 -23 475 -65 415 -164 733 -333
1074 -177 355 -386 644 -668 926 -572 571 -1305 920 -2108 1005 -151 16 -546
18 -698 4z m1974 -924 c193 -46 359 -196 429 -386 l27 -74 3 -2075 c3 -2285 5
-2173 -59 -2307 -46 -95 -168 -217 -266 -266 -146 -72 -32 -68 -1858 -65
l-1640 3 -73 27 c-192 70 -340 225 -386 404 -14 56 -16 278 -16 2161 0 2314
-5 2149 62 2277 48 91 165 204 258 249 144 70 14 66 1820 66 1422 1 1643 -1
1699 -14z"/>
<path d="M1917 5213 c-4 -3 -7 -327 -7 -720 l0 -713 615 0 615 0 0 720 0 720
-608 0 c-335 0 -612 -3 -615 -7z m735 -159 c58 -19 120 -73 156 -132 23 -41
27 -58 27 -127 0 -69 -4 -86 -27 -125 -36 -62 -73 -94 -141 -125 -106 -49
-231 -30 -325 49 -98 84 -120 241 -49 347 27 41 108 103 151 117 48 15 158 14
208 -4z m-28 -590 c14 -6 12 -14 -15 -62 l-31 -55 22 -86 c46 -188 36 -190 89
14 45 173 48 180 73 183 73 9 214 -103 238 -186 16 -59 13 -194 -6 -220 -35
-51 -45 -52 -456 -52 -365 0 -385 1 -416 20 -18 11 -37 32 -43 48 -16 40 -6
190 14 229 45 86 135 153 209 156 l43 2 45 -172 c25 -95 48 -173 51 -173 3 0
18 53 34 119 l28 118 -32 56 c-23 40 -28 57 -19 60 19 8 153 8 172 1z"/>
<path d="M3450 5075 l0 -145 765 0 765 0 0 145 0 145 -765 0 -765 0 0 -145z"/>
<path d="M3450 4495 l0 -145 765 0 765 0 0 145 0 145 -765 0 -765 0 0 -145z"/>
<path d="M3450 3920 l0 -140 765 0 765 0 0 140 0 140 -765 0 -765 0 0 -140z"/>
<path d="M1910 3340 l0 -140 1535 0 1535 0 0 140 0 140 -1535 0 -1535 0 0
-140z"/>
<path d="M1910 2765 l0 -145 1535 0 1535 0 0 145 0 145 -1535 0 -1535 0 0
-145z"/>
<path d="M1912 2188 l3 -143 1533 -3 1532 -2 0 145 0 145 -1535 0 -1536 0 3
-142z"/>
</g>
</svg>
